# xmcd
#
# Track frame offsets: 
#        150
#        14688
#        20353
#        29296
#        41876
#        51521
#        62850
#        70918
#        88313
#        98416
#        105861
#        116766
#        134229
#        142438
#        148484
#        160171
#        174139
#        182857
#        199461
#        213550
#        227938
#        242133
#        248957
#
# Disc length: 3641 seconds
#
# Revision: 0
# Processed by: cddbd v1.5.2PL0 Copyright (c) Steve Scherf et al.
# Submitted via: ExactAudioCopy v1.1
#
DISCID=6d0e3717
DTITLE=Shing02 - FOR THE TYME BEING (part 4) mixed by DJ Icewater
DYEAR=2013
DGENRE=Hip-Hop
TTITLE0=DJ $hin - Look Fwd (Ice Blend)
TTITLE1=Chimp Beams - Mixed Signals (Ice Blend) feat. Ahmad
TTITLE2=DJ Mitsu The Beats - Daily Bread (Life Changes) feat. John Rob
TTITLE2=inson
TTITLE3=What Do You Love? (Ice Blend) feat. Nightshift
TTITLE4=Luv(sic) Part6 (Yakkle Remix)
TTITLE5=DJ $hin - 1200 Ways (Ice Blend) feat. Steele
TTITLE6=Elevation (Shapes) feat. Kalhex (Ice Blend)
TTITLE7=Chimp Beams - Mooniris (Ice Blend)
TTITLE8=Living Conditions feat. Ezra, DJ A-1, Saafir
TTITLE9=Golden Shower (Street Remix) feat. Bambu, Dumbfounded, Pablo) 
TTITLE9=(Ice Blend)
TTITLE10=DJ $hin - Fresh Outta Box (Ice Blend)
TTITLE11=Yakkle - Champ Magnetique feat. DJ A-1
TTITLE12=Tigray feat. Yeti Beats, Israel
TTITLE13=Chimp Beams - BB Bleu (Kid A Remix) feat. Abstract Rude (Ice 
TTITLE13=Blend)
TTITLE14=Chimp Beams - High Line Park (Ice Blend)
TTITLE15=Kismet (DJ Motora Remix)
TTITLE16=Crisalidas feat. Cashflow, Pablo
TTITLE17=Honorable Mention (Hot Damn Reprise) feat. Dres, Jarobi, Cash
TTITLE17=flow
TTITLE18=Bad Guys feat. Self Jupiter
TTITLE19=DJ $hin - Hi-Coast (Ice Blend)
TTITLE20=Chimp Beams - Darjeeling (Ice Blend)
TTITLE21=Kalhex - Fast Forward
TTITLE22=Outer Rings feat. The Kleenrz, Ab Rude (Bonus Track)
EXTD=
EXTT0=
EXTT1=
EXTT2=
EXTT3=
EXTT4=
EXTT5=
EXTT6=
EXTT7=
EXTT8=
EXTT9=
EXTT10=
EXTT11=
EXTT12=
EXTT13=
EXTT14=
EXTT15=
EXTT16=
EXTT17=
EXTT18=
EXTT19=
EXTT20=
EXTT21=
EXTT22=
PLAYORDER=
